<?xml version="1.0" encoding="UTF-8"?>
<svg xmlns="http://www.w3.org/2000/svg" fill="none" viewBox="0 0 24 24" stroke="#38BDF8" stroke-width="1">
  <path d="M 2.093 6.908 C 0.414 4.35 1.447 0.938 3 1 C 3.67 1.171 3.799 1.352 4.057 1.946 C 4.833 4.117 4 11 2 23 L 16 23 M 18 2 A 1 1 0 0 0 17 1 L 3 1 M 18 2 L 18 5 M 16 23 C 16.619 20.297 16.959 17.314 17.252 15.902"/>
  <g stroke="#EAB308">
    <path d="M 10 17 L 15 10 L 15 12 L 19 8 L 19.008 9.317 L 23 6 L 18 13 L 18 11 L 14 15 L 13.996 13.561 L 10 17"/>
  </g>
</svg>
